<svg width="79" height="31" viewBox="0 0 79 31" fill="none" xmlns="http://www.w3.org/2000/svg">
<path d="M70.7607 11.0959V15.1429C70.7607 19.4822 74.2785 23 78.6179 23H79V30L0 31V23H11.0124C15.3518 23 18.8695 19.4822 18.8695 15.1429V10.733C18.8695 8.82913 20.4129 7.28572 22.3168 7.28572C24.2207 7.28572 25.7642 8.82913 25.7642 10.733V19.1898C25.7642 21.2941 27.47 23 29.5744 23C31.6787 23 33.3846 21.2941 33.3846 19.1898V4.8102C33.3846 2.70588 35.0904 1 37.1947 1C39.2991 1 41.0049 2.70588 41.0049 4.8102V19.1898C41.0049 21.2941 42.7108 23 44.8151 23C46.9194 23 48.6253 21.2941 48.6253 19.1898V15.7616C48.6253 13.8577 50.1687 12.3143 52.0726 12.3143C53.9765 12.3143 55.52 13.8577 55.52 15.7616V19.1898C55.52 21.2941 57.2258 23 59.3302 23C61.4345 23 63.1403 21.2941 63.1403 19.1898V11.0959C63.1403 8.9916 64.8462 7.28571 66.9505 7.28571C69.0549 7.28571 70.7607 8.99159 70.7607 11.0959Z" fill="#C4C4C4"/>
<path d="M0 23H11.0124C15.3518 23 18.8695 19.4822 18.8695 15.1429V10.733C18.8695 8.82913 20.4129 7.28572 22.3168 7.28572V7.28572C24.2207 7.28572 25.7642 8.82913 25.7642 10.733V19.1898C25.7642 21.2941 27.47 23 29.5744 23V23C31.6787 23 33.3846 21.2941 33.3846 19.1898V4.8102C33.3846 2.70588 35.0904 1 37.1947 1V1C39.2991 1 41.0049 2.70588 41.0049 4.8102V19.1898C41.0049 21.2941 42.7108 23 44.8151 23V23C46.9194 23 48.6253 21.2941 48.6253 19.1898V15.7616C48.6253 13.8577 50.1687 12.3143 52.0726 12.3143V12.3143C53.9765 12.3143 55.52 13.8577 55.52 15.7616V19.1898C55.52 21.2941 57.2258 23 59.3302 23V23C61.4345 23 63.1403 21.2941 63.1403 19.1898V11.0959C63.1403 8.9916 64.8462 7.28571 66.9505 7.28571V7.28571C69.0549 7.28571 70.7607 8.99159 70.7607 11.0959V15.1429C70.7607 19.4822 74.2785 23 78.6179 23H79" stroke="black"/>
</svg>
