<svg width="38" height="23" viewBox="0 0 38 23" fill="none" xmlns="http://www.w3.org/2000/svg">
<path fill-rule="evenodd" clip-rule="evenodd" d="M29.7935 0.1947C29.9433 0.30223 29.9775 0.510819 29.87 0.660597L28.7863 2.17001C28.676 2.32366 28.742 2.54016 28.9193 2.60615L29.9752 2.99928C30.443 3.17343 30.7532 3.61997 30.7532 4.1191C30.7532 5.0533 29.7294 5.6262 28.9332 5.13751L28.4392 4.83431C28.0539 4.59782 27.5567 4.86482 27.5411 5.31663C27.5307 5.61564 27.7458 5.87506 28.0416 5.92022L29.2075 6.0982C29.7343 6.17863 30.1398 6.60575 30.1928 7.1361C30.2926 8.13585 29.1667 8.78625 28.3506 8.2003L28.2893 8.15635C28.0789 8.00529 27.7888 8.03542 27.6139 8.22651C27.3831 8.4787 27.46 8.88197 27.7674 9.03155L29.258 9.75691C29.5589 9.90333 29.779 10.1762 29.8584 10.5012C30.0559 11.3102 29.3362 12.0458 28.5231 11.8659L28.1735 11.7885C27.7895 11.7036 27.4138 11.9612 27.3547 12.3501L26.0768 20.7653L25.4166 20.665L26.6946 12.2498C26.8116 11.479 27.5565 10.9682 28.3177 11.1366L28.6673 11.214C28.9976 11.287 29.29 10.9883 29.2097 10.6596C29.1775 10.5276 29.0881 10.4168 28.9659 10.3573L27.4752 9.63194C26.7664 9.28704 26.5892 8.3572 27.1213 7.77572C27.5246 7.33513 28.1936 7.26564 28.6787 7.61396L28.74 7.65791C29.0893 7.90868 29.5711 7.63032 29.5284 7.20245C29.5057 6.97547 29.3322 6.79268 29.1067 6.75825L27.9408 6.58027C27.3103 6.48401 26.8517 5.93096 26.8738 5.29349C26.9072 4.3303 27.9671 3.76109 28.7885 4.26525L29.2825 4.56846C29.6338 4.78407 30.0855 4.5313 30.0855 4.11911C30.0855 3.89889 29.9486 3.70186 29.7422 3.62502L28.6863 3.23189C28.0964 3.01228 27.8769 2.2919 28.2439 1.78061L29.3276 0.271197C29.4351 0.121419 29.6437 0.0871702 29.7935 0.1947Z" fill="black"/>
<path d="M20.6353 0.691876C20.8547 0.610403 24.3417 6.60633 24.7796 7.78601L28.698 16.7669C29.1358 17.9466 28.5344 19.2579 27.3548 19.6957C26.1751 20.1336 24.8638 19.5322 24.426 18.3525L19.1407 4.11253C18.7028 2.93285 19.4556 1.12973 20.6353 0.691876Z" fill="#454545"/>
<path d="M1.0878 18.4938C1.0878 16.2812 2.88144 14.4876 5.094 14.4876H25.125C27.3376 14.4876 29.1312 16.2812 29.1312 18.4938C29.1312 20.7064 27.3376 22.5 25.125 22.5H5.094C2.88144 22.5 1.0878 20.7064 1.0878 18.4938Z" fill="#454545"/>
<path d="M15.5802 3.88166L3.47547 20.3117C1.00007 18.8667 0.787147 16.7655 1.72436 15.4566L9.76791 4.47211C10.4519 3.55517 13.2961 1.45371 15.5802 3.88166Z" fill="#454545"/>
<path d="M1.0878 17.8261C1.0878 15.6136 2.88144 13.8199 5.094 13.8199H25.125C27.3376 13.8199 29.1312 15.6136 29.1312 17.8261C29.1312 20.0387 27.3376 21.8323 25.125 21.8323H5.094C2.88144 21.8323 1.0878 20.0387 1.0878 17.8261Z" fill="black"/>
<circle cx="25.125" cy="17.8261" r="1.3354" fill="white"/>
<circle cx="5.09401" cy="17.8261" r="1.3354" fill="white"/>
<path fill-rule="evenodd" clip-rule="evenodd" d="M13.4353 4.20067C13.5852 4.30802 13.6197 4.51657 13.5124 4.66648L8.4588 11.7238C8.35145 11.8737 8.14291 11.9082 7.993 11.8008C7.84309 11.6935 7.80858 11.4849 7.91593 11.335L12.9695 4.27774C13.0769 4.12783 13.2854 4.09333 13.4353 4.20067Z" fill="white"/>
</svg>
