<svg xmlns="http://www.w3.org/2000/svg" width="229" height="49.654" viewBox="0 0 229 49.654"><g transform="translate(0 -0.01)"><g transform="translate(0 0.01)"><path d="M15.392,7.3a.572.572,0,0,0-.449-.278.646.646,0,0,0-.345.12c-1.27,1.037-3.009,5.437-4.434,11.234l1.261.016c2.492.028,5.064.059,7.608.1-.672-2.656-1.3-4.932-1.886-6.768A21.349,21.349,0,0,0,15.392,7.3Z" transform="translate(5.639 3.879)" fill="#1a73e8"></path><path d="M23.861.01C10.683.01,0,11.126,0,24.838S10.683,49.664,23.861,49.664,47.722,38.549,47.722,24.838,37.038.01,23.861.01ZM41.014,25.287l-.006.006c-.025.02-.051.042-.079.061l-.026.02-.056.034a.59.59,0,0,1-.053.031h0a1.214,1.214,0,0,1-.586.151H28.9c.092.389.191.832.3,1.314.619,2.785,2.264,10.183,4.012,10.183h.09c1.367,0,2.063-2.054,3.59-6.554l.019-.056c.246-.723.522-1.538.823-2.4l.076-.221h0a.542.542,0,0,1,.6-.35.563.563,0,0,1,.449.55.584.584,0,0,1-.023.163h0l-.064.221c-.159.536-.328,1.266-.524,2.11-.91,3.926-2.286,9.856-5.814,9.856h-.026c-2.279-.019-3.64-3.811-4.226-5.431-1.09-3.027-1.917-6.255-2.709-9.379h-10.4l-2.16,7.188-.033-.026a1.078,1.078,0,0,1-1.23.485,1.141,1.141,0,0,1-.795-1.093v-.039l.131-.813c.3-1.847.655-3.767,1.064-5.706H7.665l-.016-.017a1.737,1.737,0,0,1-.056-3.4,3.766,3.766,0,0,1,.513-.022H8.32c1.393.025,2.875.047,4.49.068C15.1,12.527,17.76,7.6,20.708,7.59c3.161,0,5.506,7.491,7.382,14.818l.008.03c3.858.081,7.969.2,11.965.5l.168.016a1.56,1.56,0,0,1,.191.017h.054a1.29,1.29,0,0,1,.981.981A1.346,1.346,0,0,1,41.014,25.287Z" transform="translate(0 -0.01)" fill="#1a73e8"></path><path d="M41.843,27.3l-1.891,4.864H34.457l10.455-25.4h4.853l10.421,25.4H54.723L52.831,27.3ZM47.3,13.19l-3.568,9.247h7.208Z" transform="translate(19.119 3.739)" fill="#1a73e8"></path><path d="M81.023,19.882v9.764H76.062v-9.32c0-2.822-1.319-4.344-3.641-4.344a3.894,3.894,0,0,0-3.211,1.968,16.7,16.7,0,0,1,.14,1.931v9.764H64.394v-9.32c0-2.822-1.322-4.344-3.676-4.344a3.944,3.944,0,0,0-3.034,2v11.66h-4.96V11.861h4.96v1.078A5.427,5.427,0,0,1,61.9,11.3a6.948,6.948,0,0,1,5.461,2.525,8.086,8.086,0,0,1,6.21-2.525C77.74,11.3,81.023,14.683,81.023,19.882Z" transform="translate(29.255 6.257)" fill="#1a73e8"></path><path d="M91.479,20.706c0,5.161-3.783,9.245-8.493,9.245a8.48,8.48,0,0,1-4.853-1.41v9.617h-4.96V11.794h4.96v1.04a8.479,8.479,0,0,1,4.853-1.41C87.7,11.424,91.479,15.471,91.479,20.706Zm-4.887,0a4.612,4.612,0,0,0-8.457-2.859V23.53a4.754,4.754,0,0,0,4.032,2.043,4.635,4.635,0,0,0,4.424-4.867Z" transform="translate(40.601 6.323)" fill="#1a73e8"></path><path d="M91.7,32.508h-4.96V6.146H91.7Z" transform="translate(48.126 3.395)" fill="#1a73e8"></path><path d="M92.8,8.714a2.981,2.981,0,1,1,5.96,0,2.98,2.98,0,0,1-5.96,0Zm5.495,6.274V32.774h-4.96V14.988Z" transform="translate(51.488 3.129)" fill="#1a73e8"></path><path d="M113.292,31.454a12.617,12.617,0,0,1-4.6.816c-4.139,0-6.851-3.044-6.851-7.648v-6.35h-3.6V13.927h3.6V7.579h4.924v6.348h6.173v4.344h-6.173v6.313a2.673,2.673,0,0,0,3,2.932,11.469,11.469,0,0,0,2.889-.482Z" transform="translate(54.508 4.19)" fill="#1a73e8"></path><path d="M126.914,29.448h-4.96V28.185A7.4,7.4,0,0,1,117.067,30c-4.5,0-7.494-3.379-7.494-8.539v-9.8h4.96v9.32c0,2.822,1.357,4.346,3.676,4.346a5.068,5.068,0,0,0,3.747-2.228V11.662h4.96Z" transform="translate(60.797 6.455)" fill="#1a73e8"></path><path d="M140.812,32.509h-4.96V31.47A8.483,8.483,0,0,1,131,32.88c-4.711,0-8.528-4.047-8.528-9.282,0-5.161,3.817-9.245,8.528-9.245a8.483,8.483,0,0,1,4.853,1.41V6.146h4.96Zm-4.96-6.051V20.774a4.752,4.752,0,0,0-4.033-2.043,4.609,4.609,0,0,0-4.424,4.864c0,2.637,1.821,4.94,4.424,4.94A4.7,4.7,0,0,0,135.852,26.457Z" transform="translate(67.954 3.395)" fill="#1a73e8"></path><path d="M153.451,22.075h-12.6a4.178,4.178,0,0,0,4.427,3.713,3.089,3.089,0,0,0,2.889-1.337h5.175c-.928,3.416-4.139,5.755-8.172,5.755-5.495,0-9.206-4.12-9.206-9.43,0-5.5,3.676-9.474,9.065-9.474,4.887,0,8.528,3.6,8.528,9.1a10.789,10.789,0,0,1-.107,1.676Zm-12.562-3.046h7.745c-.288-2.227-1.572-3.452-3.57-3.452a4.047,4.047,0,0,0-4.175,3.452Z" transform="translate(75.441 6.255)" fill="#1a73e8"></path></g></g></svg>