<svg xmlns="http://www.w3.org/2000/svg" id="Layer_1" data-name="Layer 1" width="198" 
    height="34" viewBox="100.05 405.89 716.3 103.63"><path d="M129.77436,470.74537a.12964.12964,0,0,0-.19366-.16343,5.571,5.571,0,0,1-5.79312.887c-3.997-1.65091-5.25686-16.29192-12.46876-16.205,0,0-3.14977-.2824-6.03887,5.73476-3.10323,6.4631-5.77821,10.60061-5.12653,12.85976s4.48954,14.04974,13.077,14.55412a11.22869,11.22869,0,0,0,7.90722-2.79874,15.57744,15.57744,0,0,0,4.024-5.26219Z" style="fill:#3383ff"/><path d="M119.85579,431.23877l7.16845-14.11967a11.03375,11.03375,0,0,1,15.29188-2.06831,13.84664,13.84664,0,0,1,4.27728,5.21815L170.187,469.03605s2.6936,5.64787,8.58438,1.1655l-5.6142,11.50475a12.13912,12.13912,0,0,1-5.18721,5.46977,11.57276,11.57276,0,0,1-15.85615-5.54093l-22.60164-47.37152S126.79615,426.63359,119.85579,431.23877Z" style="fill:#3383ff"/><path d="M163.82653,431.28078l7.16845-14.11967a11.03374,11.03374,0,0,1,15.29188-2.06832,13.84664,13.84664,0,0,1,4.27728,5.21815l23.59359,48.76711s2.6936,5.64787,8.58438,1.1655l-5.6142,11.50475a12.13912,12.13912,0,0,1-5.18721,5.46977,11.57276,11.57276,0,0,1-15.85615-5.54093l-22.60164-47.37152S170.76689,426.67559,163.82653,431.28078Z" style="fill:#3383ff"/><path d="M288.89087,471.32422H251.54908l-7.36133,17.37793h-14.2959l33.60645-75.08887h13.65625l33.71386,75.08887H296.35865ZM284.303,460.38281,270.22,427.55859l-13.97657,32.82422Z"/><path d="M365.54615,434.42383a26.244,26.244,0,0,1,10.29492,10.29785,33.48159,33.48159,0,0,1,0,30.73242,26.12232,26.12232,0,0,1-10.29492,10.35156,30.10063,30.10063,0,0,1-14.88379,3.64747q-11.52246,0-18.24317-7.72364V509.5127H319.08228V431.42041h12.69629v7.50879a20.63939,20.63939,0,0,1,8.16211-6.11475,27.44753,27.44753,0,0,1,10.72168-2.03808A30.12147,30.12147,0,0,1,365.54615,434.42383ZM361.27857,473.041q4.74609-4.9336,4.74707-12.9795,0-8.04637-4.74707-12.98a16.08166,16.08166,0,0,0-12.10938-4.93457,17.08879,17.08879,0,0,0-8.6416,2.19922,15.86111,15.86111,0,0,0-6.082,6.27539,21.00824,21.00824,0,0,0,0,18.8794,15.84206,15.84206,0,0,0,6.082,6.27539,17.06908,17.06908,0,0,0,8.6416,2.19922A16.07632,16.07632,0,0,0,361.27857,473.041Z"/><path d="M438.73365,434.42383a26.244,26.244,0,0,1,10.29492,10.29785,33.48159,33.48159,0,0,1,0,30.73242,26.12232,26.12232,0,0,1-10.29492,10.35156,30.10063,30.10063,0,0,1-14.88379,3.64747q-11.52246,0-18.24317-7.72364V509.5127H392.26978V431.42041h12.69629v7.50879a20.63939,20.63939,0,0,1,8.16211-6.11475,27.44753,27.44753,0,0,1,10.72168-2.03808A30.12147,30.12147,0,0,1,438.73365,434.42383ZM434.46607,473.041q4.74609-4.9336,4.74707-12.9795,0-8.04637-4.74707-12.98a16.08166,16.08166,0,0,0-12.10938-4.93457,17.08879,17.08879,0,0,0-8.6416,2.19922,15.86111,15.86111,0,0,0-6.082,6.27539,21.00824,21.00824,0,0,0,0,18.8794,15.84206,15.84206,0,0,0,6.082,6.27539,17.06908,17.06908,0,0,0,8.6416,2.19922A16.07632,16.07632,0,0,0,434.46607,473.041Z"/><path d="M554.43775,437.05176q6.293,6.27538,6.29492,18.82617v32.82422H547.39576v-31.1084q0-7.50732-3.30664-11.31689-3.30909-3.8064-9.4961-3.80811a13.87432,13.87432,0,0,0-10.77539,4.45166q-4.05615,4.45313-4.05371,12.71143v29.07031H506.427v-31.1084q0-7.50732-3.30664-11.31689-3.30909-3.8064-9.4961-3.80811-6.82764,0-10.82812,4.39844-4.002,4.39965-4.001,12.76465v29.07031H465.45826V431.42041h12.69629v7.29395a20.74819,20.74819,0,0,1,8.002-5.89991,27.05985,27.05985,0,0,1,10.66894-2.03808,25.65846,25.65846,0,0,1,11.36231,2.41357,18.48711,18.48711,0,0,1,7.8418,7.13379,23.75354,23.75354,0,0,1,9.06836-7.02637,29.33116,29.33116,0,0,1,12.26953-2.521Q548.14136,430.77637,554.43775,437.05176Z"/><path d="M631.678,464.35156H586.97584a15.58458,15.58458,0,0,0,6.13476,10.03028,20.03072,20.03072,0,0,0,12.32227,3.70019,20.706,20.706,0,0,0,15.46972-6.22168l7.14844,8.25977a24.07515,24.07515,0,0,1-9.709,6.97265,38.2765,38.2765,0,0,1-29.76661-1.39453,26.94071,26.94071,0,0,1-11.042-10.458,29.65413,29.65413,0,0,1-3.89453-15.17871,30.10028,30.10028,0,0,1,3.78809-15.07177,26.94256,26.94256,0,0,1,10.50879-10.459,30.53715,30.53715,0,0,1,15.14941-3.75439,29.76478,29.76478,0,0,1,14.88379,3.70117,26.14942,26.14942,0,0,1,10.24219,10.40478,31.7043,31.7043,0,0,1,3.68066,15.50049Q631.89185,461.77882,631.678,464.35156Zm-39.42089-19.04a16.04331,16.04331,0,0,0-5.38868,10.13672h32.32715a15.60428,15.60428,0,0,0-16.11035-13.94482A16.034,16.034,0,0,0,592.25709,445.31152Z"/><path d="M678.94166,485.5918a15.67574,15.67574,0,0,1-5.708,2.8955,25.58214,25.58214,0,0,1-7.09473.96583q-9.38964,0-14.50976-4.93458-5.1211-4.93212-5.1211-14.374V442.57617h-9.38867v-10.727h9.38867V418.76221H659.844v13.08691h15.25684v10.727H659.844v27.2461q0,4.18359,2.02734,6.38281a7.57732,7.57732,0,0,0,5.86719,2.19922,11.67163,11.67163,0,0,0,7.46875-2.36035Z"/><path d="M722.89673,430.77637V443.5415a16.87794,16.87794,0,0,0-3.09472-.32177q-7.78859,0-12.16211,4.55908-4.37549,4.56079-4.374,13.14014v27.7832H689.929V431.42041h12.69629v8.3667Q708.38648,430.77685,722.89673,430.77637Z"/><path d="M734.84693,419.67432a7.93751,7.93751,0,0,1,0-11.478,8.53935,8.53935,0,0,1,6.08105-2.30615,8.786,8.786,0,0,1,6.08106,2.19873,7.10815,7.10815,0,0,1,2.4541,5.52441,8.11108,8.11108,0,0,1-2.40039,5.95361,8.28514,8.28514,0,0,1-6.13477,2.41358A8.53309,8.53309,0,0,1,734.84693,419.67432Zm-.64063,11.74609h13.33692v57.28174H734.2063Z"/><path d="M734.84693,419.67432a7.93751,7.93751,0,0,1,0-11.478,8.53935,8.53935,0,0,1,6.08105-2.30615,8.786,8.786,0,0,1,6.08106,2.19873,7.10815,7.10815,0,0,1,2.4541,5.52441,8.11108,8.11108,0,0,1-2.40039,5.95361,8.28514,8.28514,0,0,1-6.13477,2.41358A8.53309,8.53309,0,0,1,734.84693,419.67432Z" style="fill:#3383ff"/><path d="M801.31177,488.70215l-14.61621-19.84473-14.72265,19.84473H757.24927l22.19141-29.07031-21.23145-28.21143h14.83008l13.97656,18.772,13.97657-18.772h14.40234L794.05689,459.418l22.29883,29.28418Z"/></svg>