<svg xmlns="http://www.w3.org/2000/svg" xmlns:xlink="http://www.w3.org/1999/xlink" width="341.82" height="58.32">
  <defs>
    <clipPath id="a" transform="translate(-7.52 -22.83)">
      <path fill="none" d="M0 0h360v99H0z"/>
    </clipPath>
    <clipPath id="b" transform="translate(-7.52 -22.83)">
      <path d="M54.17 39.63a11.74 11.74 0 0 0 3 7.86L71 68.71l.17.27.08.11a11.79 11.79 0 0 0 19.69-13l-.21-.33a.71.71 0 0 1-.1-.14L76 33.45a11.79 11.79 0 0 0-21.84 6.18" fill="none"/>
    </clipPath>
    <clipPath id="c" transform="translate(-7.52 -22.83)">
      <path fill="none" d="M7.52 22.83h77.52v58.32H7.52z"/>
    </clipPath>
  </defs>
  <g clip-path="url(#a)" data-name="Layer 1" style="clip-path:url(#clip-path)">
    <g clip-path="url(#a)" fill="#3f4445">
      <path d="M341.82 31.31a16.41 16.41 0 1 1-16.41-16.41 16.41 16.41 0 0 1 16.41 16.41m-16.41-8.22a8.22 8.22 0 1 0 8.22 8.22 8.22 8.22 0 0 0-8.22-8.22M254.96 31.32a16.41 16.41 0 1 1-16.41-16.41 16.41 16.41 0 0 1 16.41 16.41m-16.41-8.22a8.22 8.22 0 1 0 8.22 8.22 8.22 8.22 0 0 0-8.22-8.22M176.66 14.9a3.88 3.88 0 0 0-3.76 2.42 16.42 16.42 0 1 0 0 28 3.91 3.91 0 0 0 3.77 2.41 4 4 0 0 0 4.12-4.29V19.17a4 4 0 0 0-4.12-4.29m-12.3 24.65a8.23 8.23 0 1 1 8.19-9v1.5a8.23 8.23 0 0 1-8.19 7.48M219.32 33.59a4.09 4.09 0 0 0-8.17 0 6 6 0 0 1-11.94 0V23.1h9.64a4.1 4.1 0 0 0 0-8.2h-9.66v-2.79a4.09 4.09 0 0 0-8.17 0v2.82h-3.31a4.08 4.08 0 1 0 0 8.16h3.31v10.5a14.33 14.33 0 0 0 14.16 14.14 14.15 14.15 0 0 0 14.14-14.14M306.17 43.62V28.87a14.12 14.12 0 0 0-24.2-9.7 14.11 14.11 0 0 0-24.18 9.74v14.71a4.09 4.09 0 0 0 8.17 0V29.04a6 6 0 0 1 11.95 0v14.44a4.26 4.26 0 0 0 4.12 4.24 4.18 4.18 0 0 0 4-4.24V29.04a6 6 0 0 1 11.95 0v14.58a4.08 4.08 0 1 0 8.16 0M145.12 43.61V28.85a14.12 14.12 0 0 0-24.21-9.68 14.1 14.1 0 0 0-24.17 9.73v14.71a4.08 4.08 0 0 0 8.16 0V29.03a6 6 0 0 1 12 0v14.43a4.27 4.27 0 0 0 4.13 4.25 4.19 4.19 0 0 0 4-4.25V29.03a6 6 0 0 1 11.94 0v14.58a4.08 4.08 0 1 0 8.16 0"/>
    </g>
    <g clip-path="url(#a)">
      <path d="M83.38 33.29l-.21-.33a.71.71 0 0 1-.1-.14l-14.59-22.2-18.85 14 13.85 21.26.17.27.08.11a11.8 11.8 0 0 0 19.69-13" fill="#95c748"/>
      <path d="M26.83 39.47a11.8 11.8 0 1 0-11.8 11.8 11.8 11.8 0 0 0 11.8-11.8" fill="#35bfc0"/>
    </g>
    <g clip-path="url(#b)">
      <g clip-path="url(#c)" style="clip-path:url(#clip-path-5)" opacity=".5">
      </g>
      <path d="M70.3 16.8a11.81 11.81 0 1 0-21.66 6.48l-9-12.66a11.78 11.78 0 0 0-20.08 0L5.3 32.86a11.79 11.79 0 0 1 19.87.51l9.31 13.09a11.77 11.77 0 0 0 19 0l.1-.15a10.53 10.53 0 0 0 .67-1.06l14-21.83a11.77 11.77 0 0 0 2-6.62m-19.84 8.58l.2.19-.2-.19m1 .88l.23.17-.16-.17m2.58 1.47l.31.11-.31-.11m1.28.43l.42.1-.42-.1m1.37.29l.42.06-.42-.06m9.57-2.77l.31-.29-.31.29m-6.39 2.84l.42-.07-.42.07m1.34-.24l.45-.12-.45.12m1.34-.41a3.57 3.57 0 0 0 .38-.14 3.57 3.57 0 0 1-.38.14m2.66-1.39l.25-.21-.29.22m2-1.77l.25-.27-.25.27M5.01 33.33c.09-.15.17-.29.27-.43l-.28.43z" fill="#3253a0"/>
    </g>
    <g clip-path="url(#a)">
      <path d="M70.25 16.8a11.8 11.8 0 1 0-11.77 11.8 11.8 11.8 0 0 0 11.8-11.8" fill="#f38334"/>
      <path d="M58.48 28.6a11.78 11.78 0 0 1-9.86-5.32l-9-12.66a11.77 11.77 0 0 0-20.07 0L5.25 32.86a11.79 11.79 0 0 1 19.87.51l9.36 13.09a11.77 11.77 0 0 0 19 0l.09-.15.68-1 14-21.84a11.78 11.78 0 0 1-9.77 5.13M4.95 33.33l.26-.43z" fill="#3152a0"/>
    </g>
  </g>
</svg>